<svg width="111" height="16" viewBox="0 0 111 16" fill="none" xmlns="http://www.w3.org/2000/svg">
<path d="M0 5.9105C0 2.58582 2.51659 0.0461426 5.91053 0.0461426C8.1039 0.0461426 9.99712 1.17746 10.8052 2.90906L9.88168 3.46317C9.21212 2.03171 7.68831 1.13128 5.91053 1.13128C3.18615 1.13128 1.1544 3.23229 1.1544 5.9105C1.1544 8.58871 3.18615 10.6897 5.91053 10.6897C7.73449 10.6897 9.21212 9.74311 9.95094 8.35783L10.8975 8.91194C9.97403 10.6435 8.1039 11.7518 5.91053 11.7518C2.51659 11.7518 0 9.21209 0 5.9105Z" fill="#5D0FD8"/>
<path d="M12.0273 5.9105C12.0273 2.58582 14.6594 0.0461426 17.9379 0.0461426C21.1933 0.0461426 23.8253 2.58582 23.8253 5.9105C23.8253 9.23518 21.1702 11.7518 17.9148 11.7518C14.6363 11.7518 12.0273 9.21209 12.0273 5.9105ZM22.6478 5.9105C22.6478 3.23229 20.593 1.13128 17.9148 1.13128C15.2366 1.13128 13.1587 3.23229 13.1587 5.9105C13.1587 8.58871 15.2366 10.6897 17.9148 10.6897C20.593 10.6897 22.6478 8.56562 22.6478 5.9105Z" fill="#5D0FD8"/>
<path d="M27.1508 0.30014H26.0195V11.5209H27.1508V0.30014Z" fill="#5D0FD8"/>
<path d="M39.5943 4.52522V11.4978H38.4399V4.52522C38.4399 2.47039 37.2393 1.10819 35.1383 1.10819C32.9449 1.10819 31.2133 2.53965 31.2133 5.56418V11.4978H30.082V0.300111H31.2133V2.42421C32.0676 0.761871 33.4991 0.0461426 35.2307 0.0461426C37.9089 0.0461426 39.5943 1.82392 39.5943 4.52522Z" fill="#5D0FD8"/>
<path d="M54.1631 5.91053C54.1631 9.2583 51.6234 11.8211 48.5758 11.8211C46.8211 11.8211 45.5051 11.1053 44.6508 9.92785V16H42.2266V0.300144H44.6508V1.91631C45.5051 0.715729 46.8442 0 48.5758 0C51.6234 0 54.1631 2.58586 54.1631 5.91053ZM51.7388 5.91053C51.7388 3.83261 50.215 2.33189 48.1833 2.33189C46.1515 2.33189 44.6277 3.83261 44.6277 5.91053C44.6277 7.98846 46.1515 9.48918 48.1833 9.48918C50.215 9.48918 51.7388 7.98846 51.7388 5.91053Z" fill="#5D0FD8"/>
<path d="M67.3232 0.300144V11.5209H64.899V9.90476C64.0447 11.1053 62.7287 11.8211 60.974 11.8211C57.9264 11.8211 55.3867 9.23521 55.3867 5.91053C55.3867 2.56277 57.9264 0 60.974 0C62.7287 0 64.0447 0.715729 64.899 1.89322V0.300144H67.3232ZM64.899 5.91053C64.899 3.83261 63.3752 2.33189 61.3434 2.33189C59.3348 2.33189 57.7879 3.83261 57.7879 5.91053C57.7879 7.98846 59.3117 9.48918 61.3434 9.48918C63.3752 9.48918 64.899 7.98846 64.899 5.91053Z" fill="#5D0FD8"/>
<path d="M79.9979 4.6176V11.4978H77.5736V4.87157C77.5736 3.16306 76.5808 2.26263 75.057 2.26263C73.464 2.26263 72.2172 3.20924 72.2172 5.49495V11.4978H69.793V0.300144H72.2172V1.7316C72.956 0.554113 74.1797 0 75.7035 0C78.2201 0 79.9979 1.70851 79.9979 4.6176Z" fill="#5D0FD8"/>
<path d="M84.9164 0.30014H82.4922V11.5209H84.9164V0.30014Z" fill="#5D0FD8"/>
<path d="M86.6484 5.91053C86.6484 2.56277 89.3036 0 92.5821 0C95.8836 0 98.5157 2.56277 98.5157 5.91053C98.5157 9.23521 95.8836 11.8211 92.5821 11.8211C89.3036 11.798 86.6484 9.21212 86.6484 5.91053ZM96.0914 5.91053C96.0914 3.87879 94.5676 2.35498 92.5821 2.35498C90.5965 2.35498 89.0727 3.8557 89.0727 5.91053C89.0727 7.96537 90.5965 9.46609 92.5821 9.46609C94.5445 9.443 96.0914 7.94228 96.0914 5.91053Z" fill="#5D0FD8"/>
<path d="M110.545 4.6176V11.4978H108.121V4.87157C108.121 3.16306 107.128 2.26263 105.604 2.26263C104.011 2.26263 102.764 3.20924 102.764 5.49495V11.4978H100.34V0.300144H102.764V1.7316C103.503 0.554113 104.703 0 106.227 0C108.744 0 110.545 1.70851 110.545 4.6176Z" fill="#5D0FD8"/>
</svg>
